<?xml version="1.0" encoding="UTF-8"?>
<svg xmlns="http://www.w3.org/2000/svg" version="1.1" xmlns:xlink="http://www.w3.org/1999/xlink" viewBox="0 0 1920 500">
  <!-- Generator: Adobe Illustrator 29.8.2, SVG Export Plug-In . SVG Version: 2.1.1 Build 3)  -->
  <defs>
    <style>
      .st0 {
        opacity: .4;
      }

      .st0, .st1 {
        display: none;
      }

      .st2 {
        fill: #5f7c41;
      }

      .st3 {
        fill: #fff;
      }

      .st4 {
        fill: none;
      }

      .st5 {
        clip-path: url(#clippath-1);
      }

      .st6 {
        fill: #394c22;
      }

      .st7 {
        clip-path: url(#clippath);
      }

      .st8 {
        fill: #81aa5c;
      }
    </style>
    <clipPath id="clippath">
      <rect class="st4" x="1162.9" y="155.6" width="724.6" height="188.7"/>
    </clipPath>
    <clipPath id="clippath-1">
      <rect class="st4" x="1162.9" y="155.6" width="724.6" height="188.7"/>
    </clipPath>
    <clipPath id="clippath-9">
      <rect class="st4" x="1162.9" y="155.6" width="724.6" height="188.7"/>
    </clipPath>
  </defs>
  <g id="_수풀3" data-name="수풀3" class="st1">
    <path class="st8" d="M-30.4,16.5S80.4-24.3,53.7,97.1c0,0,44.9-51,106.7-51s82.7,86.9,84.4,99.9c0,0,16.7-106.8,126.9-106.8s146.9,119.7,146.9,119.7c0,0,86.8-90.6,150.2,0,0,0,8.3-68,78.5-68s98.5,51.8,98.5,51.8c0,0,13.4-116.5,136.9-126.2,123.5-9.7,178.6,92.2,178.6,92.2,0,0,53.4-76,131.9-55,78.5,21,97.8,60.5,106.8,105.2,0,0,74.7-78,137.8,11.8,0,0,71.6-88.6,117.7,2.4,0,0-8.3-82.9,86.4-90.2,0,0,90.8-15.4,120.5,54.9,0,0-17.3-97.1,88.2-145.6v800.6H-30.4V16.5Z"/>
  </g>
  <g id="_수풀2" data-name="수풀2" class="st1">
    <path class="st2" d="M-30.4,140s70.3-28.4,116.3,17.5c45.9,45.9,45.5,115.4,45.5,115.4,0,0,8.7-33.3,61.2-33.3,0,0,32.2.8,40.3,37.2,0,0,18.6-29.1,40.5-9.1,0,0-13-71,74-107.6,101-42.4,157.7,26.8,170.8,50.2s14,54.2,14,54.2c0,0,40.1-37.6,85.8-4.7,25.9,18.6,22.2,63.2,22.2,63.2,0,0,9.3-8.9,25.6-6.7s29.2,22.4,28.1,35.8c0,0,74.7-34.9,113.5,29.9,0,0,8.1-68.6,112.4-72.8s101.1,59.8,101.1,59.8c0,0,47.3-52.1,76.9-3.4,0,0,29.1-38.6,59-17,0,0,17.5-16.2,26.6,3.6,0,0,53.8-38.5,159.3-7.4,0,0-1.6-82.4,87.4-119.7,69.7-29.2,159.4-1.4,156.9,39.9,0,0,40.6-85.2,118.3-71.8,0,0,60.7,6.1,70.2,44.6,0,0,14.2-9,24.3,3.8,0,0-10.5-55.3,67.2-66.6,0,0,17.8-68,83.5-45.3v536H-30.4V140Z"/>
  </g>
  <g id="_x33_d" class="st1">
    <image width="2400" height="1792" transform="translate(-28.9 -203.3) scale(.4)" xlink:href="footer_grass-1.png"/>
  </g>
  <g id="_x32_d" class="st1">
    <image width="2400" height="1792" transform="translate(146.5 -23.4) scale(.3)" xlink:href="footer_grass-2.png"/>
    <g class="st7">
      <g class="st5">
        <path class="st8" d="M1151.5,161.9s41.8-15.4,31.7,30.4c0,0,17-19.2,40.3-19.2s31.2,32.8,31.8,37.7c0,0,6.3-40.3,47.9-40.3s55.4,45.2,55.4,45.2c0,0,32.8-34.2,56.7,0,0,0,3.1-25.6,29.6-25.6s37.2,19.5,37.2,19.5c0,0,5-44,51.7-47.6,46.6-3.7,67.4,34.8,67.4,34.8,0,0,20.2-28.7,49.8-20.8,29.6,7.9,36.9,22.8,40.3,39.7,0,0,28.2-29.5,52,4.4,0,0,27-33.4,44.4.9,0,0-3.1-31.3,32.6-34,0,0,34.3-5.8,45.5,20.7,0,0-6.5-36.6,33.3-55v302.1h-747.6V161.9Z"/>
      </g>
    </g>
  </g>
  <g id="_수풀1_x5F_좌" data-name="수풀1_x5F_좌">
    <path class="st6" d="M0,500V229.2s-.8-7.6,38.4-3.3c60.3,6.6,63.4,62.3,63.4,62.3,0,0,25.6-16.2,36.1,10.8,0,0,45.5-50.3,135.2-19.2s76.5,102.6,76.5,102.6c0,0,22.6-26,49.7-12.8,27.1,13.2,19.4,35.5,19.4,35.5,0,0,27.7-41.4,94-20.4,67.7,21.5,60,74.6,60,74.6,0,0,58.8-17.6,59.1,40.4"/>
  </g>
  <g id="_수풀1_x5F_우" data-name="수풀1_x5F_우">
    <path class="st6" d="M1920,500V174.7s-73.2-38.8-109.4,70.5c0,0-24.5-31-84.4-2.9-21.4,10-37.1,29.3-41.5,52.5-1.7,9-1.6,18.1,2.3,25.9,0,0-52.6-23.7-84.6,22.8,0,0-47.7-45.3-108.6-18.1s-66.3,87.2-43.1,111.4c0,0-14.2-4.5-23.3.4-12.9,6.8-10.1,24.8-10.1,24.8,0,0-23.9-28.3-74.1-8.6,0,0-40.5,10.7-46.2,46.7"/>
  </g>
  <g id="_텍스트" data-name="텍스트" class="st1">
    <g>
      <rect class="st3" x="411" y="296.8" width="1100" height="75" rx="37.5" ry="37.5"/>
      <rect class="st3" x="611" y="420.2" width="700" height="16" rx="8" ry="8"/>
      <rect class="st3" x="661" y="454.6" width="600" height="16" rx="8" ry="8"/>
    </g>
  </g>
  <g id="Layer_8" class="st0">
    <image width="1920" height="506" transform="translate(0 -3)" xlink:href="footer_grass_bg.png"/>
  </g>
</svg>