<?xml version="1.0" encoding="UTF-8"?>
<svg xmlns="http://www.w3.org/2000/svg" version="1.1" xmlns:xlink="http://www.w3.org/1999/xlink" viewBox="0 0 1920 506">
  <!-- Generator: Adobe Illustrator 29.8.2, SVG Export Plug-In . SVG Version: 2.1.1 Build 3)  -->
  <defs>
    <style>
      .st0 {
        fill: #5f7c41;
      }

      .st1 {
        fill: #b8e095;
      }

      .st2 {
        display: none;
      }

      .st3 {
        fill: #81aa5c;
      }
    </style>
  </defs>
  <g id="Layer_1" class="st2">
    <image width="1920" height="506" xlink:href="footer_grass_bg.png"/>
  </g>
  <g id="Layer_2">
    <g id="Layer_3">
      <rect class="st1" x="-4.5" y="-.4" width="1924.6" height="509.7"/>
    </g>
    <path class="st3" d="M-29.4,20.3S81.4-20.5,54.7,100.8c0,0,44.9-51,106.7-51s82.7,86.9,84.4,99.9c0,0,16.7-106.8,126.9-106.8s146.9,119.7,146.9,119.7c0,0,86.8-90.6,150.2,0,0,0,8.3-68,78.5-68s98.5,51.8,98.5,51.8c0,0,13.4-116.5,136.9-126.2,123.5-9.7,178.6,92.2,178.6,92.2,0,0,53.4-76,131.9-55,78.5,21,97.8,60.5,106.8,105.2,0,0,74.7-78,137.8,11.8,0,0,71.6-88.6,117.7,2.4,0,0-8.3-82.9,86.4-90.2,0,0,90.8-15.4,120.5,54.9,0,0-17.3-97.1,88.2-145.6v800.6H-29.4V20.3Z"/>
    <path class="st0" d="M-30.4,141.8s70.3-28.4,116.3,17.5c45.9,45.9,45.5,115.4,45.5,115.4,0,0,8.7-33.3,61.2-33.3,0,0,32.2.8,40.3,37.2,0,0,18.6-29.1,40.5-9.1,0,0-13-71,74-107.6,101-42.4,157.7,26.8,170.8,50.2s14,54.2,14,54.2c0,0,40.1-37.6,85.8-4.7,25.9,18.6,22.2,63.2,22.2,63.2,0,0,9.3-8.9,25.6-6.7s29.2,22.4,28.1,35.8c0,0,74.7-34.9,113.5,29.9,0,0,8.1-68.6,112.4-72.8s101.1,59.8,101.1,59.8c0,0,47.3-52.1,76.9-3.4,0,0,29.1-38.6,59-17,0,0,17.5-16.2,26.6,3.6,0,0,53.8-38.5,159.3-7.4,0,0-1.6-82.4,87.4-119.7,69.7-29.2,159.4-1.4,156.9,39.9,0,0,40.6-85.2,118.3-71.8,0,0,60.7,6.1,70.2,44.6,0,0,14.2-9,24.3,3.8,0,0-10.5-55.3,67.2-66.6,0,0,17.8-68,83.5-45.3v536H-30.4V141.8Z"/>
  </g>
</svg>