<?xml version="1.0" encoding="UTF-8"?>
<svg xmlns="http://www.w3.org/2000/svg" version="1.1" xmlns:xlink="http://www.w3.org/1999/xlink" viewBox="0 0 1920 1080">
  <!-- Generator: Adobe Illustrator 29.8.2, SVG Export Plug-In . SVG Version: 2.1.1 Build 3)  -->
  <defs>
    <style>
      .st0 {
        fill: #714a2d;
      }

      .st1 {
        fill: #fff;
      }

      .st2 {
        display: none;
      }

      .st3 {
        fill: #55771b;
      }
    </style>
  </defs>
  <g id="_로고이미지" data-name="로고이미지" class="st2">
    <image width="280" height="221" transform="translate(134.8 162.8) scale(1.3)" xlink:href="어슬렁_로고-1.png"/>
  </g>
  <g id="_로고" data-name="로고">
    <g>
      <g>
        <path class="st0" d="M765.1,319.1v-33s17.3-108.5,154.2-108.5c138,.6,154.6,110.2,154.6,110.2l.4,31.3,61.8,59.9c7.9,7.7,2.5,21.1-8.6,21.1h-28.3s-26.9,79.6-137.8,113.1c0,0,.9,34.6-42.1,34.6s-40.2-33.5-40.2-33.5c0,0-109-23.1-139.1-114.2h-27.5c-11,0-16.5-13.4-8.6-21.1l61.2-60Z"/>
        <path class="st1" d="M798.8,266.8h53.6s8.6-48.1,20.9-61.1c0,0-51.4,12.3-74.5,61.1Z"/>
        <path class="st1" d="M1039.5,266.8h-53.9s-8.6-48.4-21-61.1c0,0,51.7,13.5,74.9,61.1Z"/>
        <path class="st1" d="M880.8,266.8h77.1s-34.6-154-77.1,0Z"/>
        <rect class="st3" x="792.9" y="289.2" width="252.9" height="22.7"/>
        <polygon class="st1" points="997.4 334.6 785.4 334.6 739.2 379.3 941.5 379.3 997.4 334.6"/>
        <polygon class="st1" points="1038 334.6 982.5 379.3 1100.9 379.3 1054 334.6 1038 334.6"/>
        <path class="st1" d="M886.7,496.1s-90.2-21.1-118.8-94.5h303.2s-21.2,60.2-120,94.5c0,0-8.2-12.7-31.7-12.7s-32.8,12.7-32.8,12.7Z"/>
        <path class="st1" d="M912.5,507.2c5.2-2.6,11.5-2.5,16.2,1.1s4.6,4.8,4.6,9.1-4.1,8.9-7.7,10.3-6.8,1.2-10,0-10.2-4.7-10.2-10.9,3.5-7.8,7.2-9.6Z"/>
      </g>
      <path class="st0" d="M1163.6,408.4h-32.9c-13.9,0-22.9,9.6-22.9,24.6v15.2h-.2c0,0-.2,0-.3,0-2.2,0-4.1.4-5.8.8l.6-18.6c0-3.1.3-12.2-5.9-18.5-3.9-4-9.2-6-15.8-6s-.7,0-1.1,0l-97,2.5c0,0-.1,0-.2,0-19.1.8-20.6,15.6-20.6,20.1v22.9c0,6.9,2.7,12.5,7.3,16.1-2.7,3.9-4,9.1-3.9,15.6v3.4s-12.7-4.1-12.7-4.1v-7.9c0-9.9-3.8-21.6-21.6-21.6h-35.4c-13.7,0-21.6,7.9-21.6,21.6v8l-40.9,14.9v-51.6c0-14.9-9-24.6-22.9-24.6h-32.9c-13.9,0-22.9,9.6-22.9,24.6v14.9c-14-24.3-37-41.4-63.3-46.4-1.5-7.5-8-13.1-15.9-13.1s-14.5,5.6-15.9,13.1c-44.4,8.3-77.7,50.4-77.7,100.9s42,102.4,93.6,102.4,62.4-18.5,79.3-47.9v29.9c0,14.9,9,24.6,22.9,24.6h32.9c4,0,7.6-.8,10.6-2.3v11.6c0,4.6,1.7,9.7,5.8,13.2-.7,2.6-1,5.5-.9,8.8l1.5,44c.5,14.1,7.3,21.2,20.5,21.2s1,0,1.5,0l131.1-2.5c12.6,0,19.8-7.1,19.8-19.4v-16.7c0-3.3-.5-6.3-1.5-8.8,3.4-3.8,4.6-9,5.1-14,0-.2,0-.4,0-.6l2.2-43.5c.2-2.7.3-6.2-.7-9.6,3.9-3.5,6.1-8.7,6.1-14.9v-20.2c0-3-.5-5.8-1.5-8.3l70.9-1.9c0,0,.1,0,.2,0,19.1-.8,20.6-15.6,20.6-20.1v-18.6c1.8.5,3.8.7,5.9.7s.5,0,.8,0v15.2c0,14.9,9,24.6,22.9,24.6h32.9c13.9,0,22.9-9.6,22.9-24.6v-104.7c0-14.9-9-24.6-22.9-24.6ZM809.8,612.1h-32.9c-7.1,0-10.6-4.2-10.6-12.3v-55.3l-14.7.2c-11,35.3-41.3,60.7-76.9,60.7s-81.3-40.3-81.3-90.1,34.3-87.7,77.4-90v-7.8c0-2.2,1.8-4,4-4s4,1.8,4,4v7.8c36.9,2,67.3,31.1,75.3,69.7l12.3-.2v-48.9c0-8.1,3.4-12.3,10.6-12.3h32.9c7.1,0,10.6,4.2,10.6,12.3v56.4c-4,2.4-6.1,5.5-7.2,8-1.5,3.4-2.5,8.9.7,16l6.5,15.2v17.4c-3.5,3.5-5.6,8.4-5.6,14.3v20.2c0,5.2,1.6,9.7,4.4,13.1-1.5,3.7-4.6,5.7-9.4,5.7ZM993.3,614.5l-2.2,43.8c-.7,7.1-1.7,8.8-9.3,9.1l-89.5,4.4v5.7l87.5-2.5c.3,0,.6,0,.9,0,5.2,0,6.7,2,6.7,7.4v16.7c0,5.7-1.7,7.1-7.6,7.1l-131.3,2.5c-.4,0-.8,0-1.2,0-6.6,0-7.9-2.1-8.2-9.4l-1.5-44c-.2-7.6,1.7-9.3,9.3-9.6l91.2-4.7v-4.9l-99.1,2.5c-4.9,0-6.4-1.7-6.4-4.9v-20.4c1,.1,2.1.2,3.2.2s.1,0,.2,0l153.8-2.5c1.2,0,2.3,0,3.3-.2.1,1.1.1,2.2,0,3.7ZM998.7,590.9c0,2-.5,3.7-1.4,5-5-3-10.6-3-13.3-3s-.1,0-.2,0l-144.7,2.5c-2.3,0-4.4.3-6.3.9v-30.5c1-.2,2-.4,3.3-.4l149.5-2.4c.7,0,1.4,0,2.1,0s.6,0,1,0h2.5c5.1.3,7.7,2.9,7.7,7.7v20.2ZM1080,509.4c.2,0,.5,0,.7,0,5.4,0,8.1,2.7,8.1,7.9v23.1c0,5.7-2.9,7.6-8.8,7.9l-88.7,2.4c-.5,0-1,0-1.5,0s-.1,0-.2,0h-3.7c-.5,0-.9,0-1.4-.2-.2,0-.4,0-.6,0-1.1,0-2.4-.3-4-.8l-67.1-21.4-67.1,23.8c-1.2.5-2.4.8-3.4.8-2.5,0-4.5-1.5-5.7-4.4l-4-9.4v-28.4l46.8-17c4.2-1.5,6.4-4.4,6.4-8.8v-10.1c0-7.1,2.5-9.3,9.3-9.3h35.4c7.1,0,9.3,1.7,9.3,9.3v10.1c0,4.7,2.2,7.6,6.4,8.8l31.2,9.9-.3-20.6c-.2-8.6,2.5-11.1,10.1-11.8l46.2-5.2.2-8.4-51.1,1.7c-.3,0-.5,0-.8,0-5.4,0-8.1-2.5-8.1-7.9v-22.9c0-5.7,2.9-7.6,8.8-7.9l97.1-2.5c.3,0,.5,0,.7,0,7.1,0,9.6,3.5,9.3,11.8l-1,28.5c-1.9,3.9-2.2,7.8-2.2,9.8v25.4c-1.4,3-4,4.1-8.6,4.6l-46,4.2v8.6l47.9-1.7ZM1174.1,537.7c0,8.1-3.4,12.3-10.6,12.3h-32.9c-7.1,0-10.6-4.2-10.6-12.3v-27.8l-12.3.2c-.3,0-.5,0-.8,0-5.4,0-8.1-2.5-8.1-7.9v-6.6c.7-2.5,1.1-5.3,1.2-8.5l.9-24.6c1.5-1.3,3.7-1.9,6.8-2.1l12.3-.2v-27.3c0-8.1,3.4-12.3,10.6-12.3h32.9c7.1,0,10.6,4.2,10.6,12.3v104.7Z"/>
      <path class="st1" d="M1163.6,420.7h-32.9c-7.1,0-10.6,4.2-10.6,12.3v27.3l-12.3.2c-5.9.2-8.8,2.2-8.8,7.9v33.9c0,5.7,2.9,8.1,8.8,7.9l12.3-.2v27.8c0,8.1,3.4,12.3,10.6,12.3h32.9c7.1,0,10.6-4.2,10.6-12.3v-104.7c0-8.1-3.4-12.3-10.6-12.3Z"/>
      <path class="st1" d="M989.8,562.8l-153.9,2.5c-5.9,0-8.8,2.7-8.8,7.9v20.2c0,5.2,2.9,7.9,8.8,7.9l153.9-2.5c5.9,0,8.8-2.7,8.8-7.9v-20.2c0-5.2-2.9-7.9-8.8-7.9Z"/>
      <path class="st1" d="M983.9,605.1l-144.8,2.5c-4.9,0-6.4,1.7-6.4,5.4v20.6c0,3.2,1.5,4.9,6.4,4.9l99.1-2.5v4.9l-91.2,4.7c-7.6.2-9.6,2-9.3,9.6l1.5,44c.2,7.6,1.7,9.6,9.3,9.3l131.3-2.5c5.9,0,7.6-1.5,7.6-7.1v-16.7c0-5.7-1.7-7.6-7.6-7.4l-87.5,2.5v-5.7l89.5-4.4c7.6-.2,8.6-2,9.3-9.1l2.2-43.8c.7-7.6-1.7-9.3-9.3-9.3Z"/>
      <path class="st1" d="M1078,498.3c7.1-.7,9.6-2.9,9.8-11.6l2-56.8c.2-8.6-2.5-12-10.1-11.8l-97.1,2.5c-5.9.2-8.8,2.2-8.8,7.9v22.9c0,5.7,2.9,8.1,8.8,7.9l51.1-1.7-.2,8.4-46.2,5.2c-7.6.7-10.3,3.2-10.1,11.8l.3,20.6-31.2-9.9c-4.2-1.2-6.4-4.2-6.4-8.8v-10.1c0-7.6-2.2-9.3-9.3-9.3h-35.4c-6.9,0-9.3,2.2-9.3,9.3v10.1c0,4.4-2.2,7.4-6.4,8.8l-50.6,18.4c-4.7,1.5-5.9,4.7-3.7,9.3l11.6,27c1.7,4.2,4.9,5.4,9.1,3.7l67.1-23.8,67.1,21.4c1.8.6,3.3.9,4.5.8,1,.2,2.2.4,3.5.3l91.9-2.5c5.9-.2,8.8-2.2,8.8-7.9v-23.1c0-5.4-2.9-8.1-8.8-7.9l-47.9,1.7v-8.6l46-4.2Z"/>
      <path class="st1" d="M809.8,433.6h-32.9c-7.1,0-10.6,4.2-10.6,12.3v48.9l-12.3.2c-8-38.6-38.4-67.7-75.3-69.7v-7.8c0-2.2-1.8-4-4-4s-4,1.8-4,4v7.8c-43.1,2.3-77.4,41.7-77.4,90s36.4,90.1,81.3,90.1,65.9-25.4,76.9-60.7l14.7-.2v55.3c0,8.1,3.4,12.3,10.6,12.3h32.9c7.1,0,10.6-4.2,10.6-12.3v-153.9c0-8.1-3.4-12.3-10.6-12.3Z"/>
      <polygon class="st0" points="632.4 576.7 663.9 501.6 718.2 453.8 689.5 519.5 632.4 576.7"/>
      <g>
        <path class="st0" d="M675.3,570.4c-2.2,0-4,1.8-4,4v12.6c0,2.2,1.8,4,4,4s4-1.8,4-4v-12.6c0-2.2-1.8-4-4-4Z"/>
        <path class="st0" d="M675.3,438.1c-2.2,0-4,1.8-4,4v12.6c0,2.2,1.8,4,4,4s4-1.8,4-4v-12.6c0-2.2-1.8-4-4-4Z"/>
      </g>
      <g>
        <path class="st3" d="M1238.9,685.7l-45-40.6c7.1-11.6,11.2-25,11.2-39.2,0-45.2-41-81.9-91.6-81.9s-91.6,36.7-91.6,81.9,41,81.9,91.6,81.9,32.2-4,45.7-10.9l47.8,43.2c9.8,9.1,24.9,8.8,33.7-.6h0c8.8-9.5,8-24.5-1.9-33.7Z"/>
        <path class="st0" d="M1113.6,524.1c50.6,0,91.6,36.7,91.6,81.9s-4.1,27.6-11.2,39.2l45,40.6c9.8,9.1,10.7,24.2,1.9,33.7h0c-4.5,4.9-10.7,7.3-16.9,7.3s-12-2.2-16.8-6.7l-47.8-43.2c-13.5,6.9-29.1,10.9-45.7,10.9-50.6,0-91.6-36.7-91.6-81.9s41-81.9,91.6-81.9M1113.6,511.8c-57.3,0-103.9,42.2-103.9,94.2s46.6,94.2,103.9,94.2,29.9-3,43.5-8.7l41.8,37.7c6.9,6.4,15.8,9.9,25.1,9.9s19.3-4.1,25.9-11.2c13.4-14.4,12.3-37.3-2.5-51h0c0,0,0-.1,0-.1l-37.9-34.2c5.3-11.5,8.1-23.9,8.1-36.5,0-51.9-46.6-94.2-103.9-94.2h0Z"/>
      </g>
      <g>
        <ellipse class="st1" cx="1113.6" cy="605.9" rx="64.1" ry="57.3"/>
        <path class="st0" d="M1113.6,560.9c28.6,0,51.8,20.2,51.8,45s-23.2,45-51.8,45-51.8-20.2-51.8-45,23.2-45,51.8-45M1113.6,548.6c-35.4,0-64.1,25.7-64.1,57.3s28.7,57.3,64.1,57.3,64.1-25.7,64.1-57.3-28.7-57.3-64.1-57.3h0Z"/>
      </g>
      <path class="st0" d="M1078.4,617.6c-2.6,0-5.1-1.7-5.9-4.4-.9-2.9-2.5-10.5.9-19.6,4.6-12.3,14.5-16.2,15.6-16.6,3.2-1.1,6.7.5,7.9,3.7,1.1,3.2-.5,6.7-3.7,7.9-.3.1-5.6,2.2-8.3,9.3-2.2,5.9-.9,10.8-.7,11.8,1,3.3-.9,6.7-4.1,7.6-.6.2-1.2.3-1.8.3Z"/>
    </g>
  </g>
</svg>